<?xml version="1.0" encoding="utf-8"?>
<!-- Generator: Adobe Illustrator 23.0.3, SVG Export Plug-In . SVG Version: 6.00 Build 0)  -->
<svg version="1.0" id="Capa_1" xmlns="http://www.w3.org/2000/svg" xmlns:xlink="http://www.w3.org/1999/xlink" x="0px" y="0px"
	 viewBox="0 0 1200 1200" style="enable-background:new 0 0 1200 1200;" xml:space="preserve">
<style type="text/css">
	.st0{fill:url(#SVGID_1_);}
</style>
<g>
	<defs>
		<path id="SVGID_2_" d="M277.9,299.2c-36.1,12.3-66.8,29.8-92,52.5c-25.3,22.7-44.6,50.1-57.9,82.3c-13.3,32.1-20,67.7-20,106.6
			v319.4c0,18.8,2.2,33.9,6.5,45.5c4.3,11.5,10.8,20.6,19.5,27c8.7,6.5,19.3,11,31.9,13.6c12.6,2.5,27.3,3.8,43.9,3.8
			c15.9,0,32.5-1.3,49.8-3.8c17.3-2.6,30-4.5,37.9-6V543.9c0-34.6,9.4-61.7,28.2-81.2c18.8-19.6,43.7-29.2,74.7-29.2
			c30.3,0,55,9.7,74.2,29.2c19.2,19.5,28.7,46.5,28.7,81.2v157.2c0,39,6.7,74.6,20,106.6c13.3,32.2,32.6,59.6,57.9,82.3
			c25.2,22.7,55.9,40.3,92,52.5c6.3,2.1,12.9,3.9,19.5,5.6c18.2,4.9,37.6,8.5,58,10.6h90.7c27.5-2.8,53-8.2,76.5-16.2
			c36.1-12.3,66.8-29.8,92.1-52.5c25.3-22.7,44.6-50.1,57.9-82.3c13.4-32.1,20.1-67.7,20.1-106.6V380.4c0-18.8-2.2-33.9-6.5-45.5
			c-4.3-11.5-10.8-20.6-19.5-27c-8.7-6.5-19.3-11-31.9-13.6c-12.6-2.5-27.3-3.8-43.8-3.8c-15.9,0-32.5,1.3-49.8,3.8
			c-17.3,2.6-30,4.5-37.9,6v397.5c0,34.6-9.4,61.7-28.2,81.2c-18.8,19.6-43.7,29.2-74.7,29.2c-30.3,0-55-9.7-74.2-29.2
			c-19.2-19.5-28.7-46.5-28.7-81.2V540.7c0-39-6.7-74.6-20-106.6c-13.4-32.2-32.6-59.6-57.9-82.3c-25.3-22.7-56-40.3-92-52.5
			c-6.3-2.1-12.9-3.9-19.5-5.6c-31.1-8.4-65.3-12.8-102.8-12.8C354.8,280.8,314,287,277.9,299.2"/>
	</defs>
	<use xlink:href="#SVGID_2_"  style="overflow:visible;fill:#FFFFFF;"/>
	<clipPath id="SVGID_1_">
		<use xlink:href="#SVGID_2_"  style="overflow:visible;"/>
	</clipPath>
</g>
</svg>
